<svg width="72" height="72" viewBox="0 0 72 72" fill="none" xmlns="http://www.w3.org/2000/svg">
<rect width="72" height="72" rx="36" fill="white"/>
<path d="M29.42 27.4198L34 22.8198V41.9998C34 42.5302 34.2107 43.0389 34.5858 43.414C34.9609 43.7891 35.4696 43.9998 36 43.9998C36.5304 43.9998 37.0391 43.7891 37.4142 43.414C37.7893 43.0389 38 42.5302 38 41.9998V22.8198L42.58 27.4198C42.7659 27.6073 42.9871 27.756 43.2308 27.8576C43.4746 27.9591 43.736 28.0114 44 28.0114C44.264 28.0114 44.5254 27.9591 44.7692 27.8576C45.0129 27.756 45.2341 27.6073 45.42 27.4198C45.6075 27.2339 45.7562 27.0127 45.8578 26.7689C45.9593 26.5252 46.0116 26.2638 46.0116 25.9998C46.0116 25.7358 45.9593 25.4744 45.8578 25.2306C45.7562 24.9869 45.6075 24.7657 45.42 24.5798L37.42 16.5798C37.2298 16.3977 37.0055 16.255 36.76 16.1598C36.2731 15.9598 35.7269 15.9598 35.24 16.1598C34.9945 16.255 34.7702 16.3977 34.58 16.5798L26.58 24.5798C26.3935 24.7663 26.2456 24.9877 26.1447 25.2313C26.0438 25.4749 25.9918 25.7361 25.9918 25.9998C25.9918 26.2635 26.0438 26.5246 26.1447 26.7683C26.2456 27.0119 26.3935 27.2333 26.58 27.4198C26.7665 27.6063 26.9879 27.7542 27.2315 27.8551C27.4751 27.956 27.7363 28.008 28 28.008C28.2637 28.008 28.5249 27.956 28.7685 27.8551C29.0121 27.7542 29.2335 27.6063 29.42 27.4198ZM54 35.9998C53.4696 35.9998 52.9609 36.2105 52.5858 36.5856C52.2107 36.9607 52 37.4694 52 37.9998V49.9998C52 50.5302 51.7893 51.0389 51.4142 51.414C51.0391 51.7891 50.5304 51.9998 50 51.9998H22C21.4696 51.9998 20.9609 51.7891 20.5858 51.414C20.2107 51.0389 20 50.5302 20 49.9998V37.9998C20 37.4694 19.7893 36.9607 19.4142 36.5856C19.0391 36.2105 18.5304 35.9998 18 35.9998C17.4696 35.9998 16.9609 36.2105 16.5858 36.5856C16.2107 36.9607 16 37.4694 16 37.9998V49.9998C16 51.5911 16.6321 53.1172 17.7574 54.2424C18.8826 55.3677 20.4087 55.9998 22 55.9998H50C51.5913 55.9998 53.1174 55.3677 54.2426 54.2424C55.3679 53.1172 56 51.5911 56 49.9998V37.9998C56 37.4694 55.7893 36.9607 55.4142 36.5856C55.0391 36.2105 54.5304 35.9998 54 35.9998Z" fill="black"/>
</svg>
