<svg width="17" height="16" viewBox="0 0 17 16" fill="none" xmlns="http://www.w3.org/2000/svg">
<path d="M11.8333 2.00004C12.0083 1.82494 12.2162 1.68605 12.445 1.59129C12.6738 1.49653 12.919 1.44775 13.1666 1.44775C13.4142 1.44775 13.6594 1.49653 13.8882 1.59129C14.117 1.68605 14.3248 1.82494 14.4999 2.00004C14.675 2.17513 14.8139 2.383 14.9087 2.61178C15.0034 2.84055 15.0522 3.08575 15.0522 3.33337C15.0522 3.58099 15.0034 3.82619 14.9087 4.05497C14.8139 4.28374 14.675 4.49161 14.4999 4.66671L5.49992 13.6667L1.83325 14.6667L2.83325 11L11.8333 2.00004Z" stroke="#F5F5F5" stroke-width="1.6" stroke-linecap="round" stroke-linejoin="round"/>
</svg>
