<svg width="28" height="28" viewBox="0 0 28 28" fill="none" xmlns="http://www.w3.org/2000/svg">
<path d="M13.9998 12.25C12.8506 12.25 11.7484 11.7891 10.9357 10.9686C10.1231 10.1481 9.6665 9.03532 9.6665 7.875C9.6665 6.71468 10.1231 5.60188 10.9357 4.78141C11.7484 3.96094 12.8506 3.5 13.9998 3.5C15.1491 3.5 16.2513 3.96094 17.064 4.78141C17.8766 5.60188 18.3332 6.71468 18.3332 7.875C18.3332 9.03532 17.8766 10.1481 17.064 10.9686C16.2513 11.7891 15.1491 12.25 13.9998 12.25ZM13.9998 5.25C12.5612 5.25 11.3998 6.4225 11.3998 7.875C11.3998 9.3275 12.5612 10.5 13.9998 10.5C15.4385 10.5 16.5998 9.3275 16.5998 7.875C16.5998 6.4225 15.4385 5.25 13.9998 5.25Z" fill="white"/>
<path d="M24.4 19.25C23.9147 19.25 23.5333 18.865 23.5333 18.375C23.5333 17.885 23.9147 17.5 24.4 17.5C24.8853 17.5 25.2667 17.115 25.2667 16.625C25.2667 15.4647 24.8101 14.3519 23.9975 13.5314C23.1848 12.7109 22.0826 12.25 20.9333 12.25H19.2C18.7147 12.25 18.3333 11.865 18.3333 11.375C18.3333 10.885 18.7147 10.5 19.2 10.5C20.6387 10.5 21.8 9.3275 21.8 7.875C21.8 6.4225 20.6387 5.25 19.2 5.25C18.7147 5.25 18.3333 4.865 18.3333 4.375C18.3333 3.885 18.7147 3.5 19.2 3.5C20.3493 3.5 21.4515 3.96094 22.2641 4.78141C23.0768 5.60188 23.5333 6.71468 23.5333 7.875C23.5333 8.96 23.152 9.94 22.4933 10.71C25.076 11.41 27 13.79 27 16.625C27 18.0775 25.8387 19.25 24.4 19.25ZM3.6 19.25C2.16133 19.25 1 18.0775 1 16.625C1 13.79 2.90667 11.41 5.50667 10.71C4.86533 9.94 4.46667 8.96 4.46667 7.875C4.46667 6.71468 4.92321 5.60188 5.73587 4.78141C6.54853 3.96094 7.65073 3.5 8.8 3.5C9.28533 3.5 9.66667 3.885 9.66667 4.375C9.66667 4.865 9.28533 5.25 8.8 5.25C7.36133 5.25 6.2 6.4225 6.2 7.875C6.2 9.3275 7.36133 10.5 8.8 10.5C9.28533 10.5 9.66667 10.885 9.66667 11.375C9.66667 11.865 9.28533 12.25 8.8 12.25H7.06667C5.9174 12.25 4.8152 12.7109 4.00254 13.5314C3.18988 14.3519 2.73333 15.4647 2.73333 16.625C2.73333 17.115 3.11467 17.5 3.6 17.5C4.08533 17.5 4.46667 17.885 4.46667 18.375C4.46667 18.865 4.08533 19.25 3.6 19.25ZM19.2 24.5H8.8C7.36133 24.5 6.2 23.3275 6.2 21.875V20.125C6.2 16.7475 8.92133 14 12.2667 14H15.7333C19.0787 14 21.8 16.7475 21.8 20.125V21.875C21.8 23.3275 20.6387 24.5 19.2 24.5ZM12.2667 15.75C11.1174 15.75 10.0152 16.2109 9.20254 17.0314C8.38988 17.8519 7.93333 18.9647 7.93333 20.125V21.875C7.93333 22.365 8.31467 22.75 8.8 22.75H19.2C19.6853 22.75 20.0667 22.365 20.0667 21.875V20.125C20.0667 18.9647 19.6101 17.8519 18.7975 17.0314C17.9848 16.2109 16.8826 15.75 15.7333 15.75H12.2667Z" fill="white"/>
</svg>
